# xmcd
#
# Track frame offsets:
#	150
#	14514
#	31517
#	48949
#	65727
#	81858
#	99509
#	112817
#	129664
#	149538
#	166093
#	179354
#	196354
#	210927
#	227368
#	242241
#	258617
#	274229
#	291899
#	305184
#
# Disc length: 4260 seconds
#
# Revision: 3
# Processed by: cddbd v1.5.2PL0 Copyright (c) Steve Scherf et al.
# Submitted via: audiograbber 1.83.01
#
DISCID=1d10a214
DTITLE=Various Artist - CDX 392
DYEAR=2006
DGENRE=Country
TTITLE0=Megan Mullins - Ain't What It Used To Be
TTITLE1=Carrie Underwood - Don't Forget To Remember Me
TTITLE2=Alison Kraus and Union Station - If I Didn't Know Any Better
TTITLE3=Brad Paisley - The World
TTITLE4=Tim McGraw - When The Stars Go Blue (Single Version)
TTITLE5=Tim McGraw - When The Stars Go Blue (Album Version)
TTITLE6=Owen, Jake - Yee Haw
TTITLE7=Willie Nelson - You Don't Know Me
TTITLE8=The Rider - By Your Side
TTITLE9=Michael Lee Austin - Cold Window Pane
TTITLE10=Connie Kis Andersen - Come On, Come On
TTITLE11=Well Hungarians - Diamonds And Love
TTITLE12=Rustie Blue - Oh Baby
TTITLE13=Poverty Neck Hillbillys - The Hillbilly Way
TTITLE14=Memarie - The Hole In Willie's Guitar
TTITLE15=Sonny Burgess - The More I'm Around Some People, The More I Like My Do
TTITLE15=g
TTITLE16=Doc Wooten - Toeing The Line
TTITLE17=Shawn Camp - Waitin' For The Day To Break
TTITLE18=Kyle Wyley - 9 to 5 - Thank The Lord For The Night Time
TTITLE19=Pete Schlegel  - You Can't Bring Her Back
EXTD=
EXTT0=
EXTT1=
EXTT2=
EXTT3=
EXTT4=
EXTT5=
EXTT6=
EXTT7=
EXTT8=
EXTT9=
EXTT10=
EXTT11=
EXTT12=
EXTT13=
EXTT14=
EXTT15=
EXTT16=
EXTT17=
EXTT18=
EXTT19=
PLAYORDER=
